<svg width="125" height="125" viewBox="0 0 125 125" fill="none" xmlns="http://www.w3.org/2000/svg">
<circle cx="62.5" cy="62.5" r="62.5" fill="#3182CE"/>
<path d="M59.024 87.576C58.608 87.576 58.336 87.4 58.208 87.048C58.08 86.696 58.016 86.04 58.016 85.08V83.016C58.016 80.424 58.24 73.4 58.688 61.944C58.752 59.352 58.832 56.808 58.928 54.312C59.024 51.816 59.088 49.768 59.12 48.168C57.744 51.24 55.632 55.512 52.784 60.984C49.968 66.456 48.256 69.768 47.648 70.92C46.24 73.576 44.816 76.312 43.376 79.128C43.056 79.8 42.656 80.136 42.176 80.136C41.728 80.136 41.408 79.912 41.216 79.464L39.488 71.496C36.576 58.472 34.784 50.312 34.112 47.016C33.376 50.728 32.608 54.28 31.808 57.672C31.04 61.032 30.048 65.208 28.832 70.2C28.384 72.088 27.84 74.376 27.2 77.064C26.56 79.752 25.824 82.92 24.992 86.568C24.64 87.208 24.192 87.528 23.648 87.528C23.168 87.528 22.896 87.208 22.832 86.568C23.376 83.56 24.144 79.848 25.136 75.432C26.128 71.016 27.12 66.728 28.112 62.568C29.104 58.376 29.76 55.576 30.08 54.168L33.008 41.736C33.104 41.416 33.28 41.144 33.536 40.92C33.824 40.696 34.096 40.584 34.352 40.584C34.768 40.584 35.056 40.856 35.216 41.4C35.76 43.768 37.072 49.736 39.152 59.304C40.4 65.544 41.536 70.792 42.56 75.048C44.064 72.488 45.92 69.064 48.128 64.776C50.336 60.488 53.312 54.648 57.056 47.256C58.016 45.272 58.944 43.416 59.84 41.688C60.224 40.92 60.688 40.536 61.232 40.536C61.744 40.536 62 40.776 62 41.256L61.904 42.552C61.008 57.784 60.496 72.008 60.368 85.224C60.464 85.352 60.512 85.528 60.512 85.752C60.512 86.168 60.352 86.584 60.032 87C59.744 87.384 59.408 87.576 59.024 87.576ZM89.6203 87.528C89.0443 87.528 88.5483 87.016 88.1323 85.992C87.7163 84.968 87.3003 83.576 86.8843 81.816L85.9723 78.36C81.5243 61.336 78.7883 50.696 77.7643 46.44C76.8683 50.536 76.1323 54.04 75.5563 56.952C72.7083 70.52 70.5643 80.376 69.1243 86.52C68.9643 87.16 68.5483 87.48 67.8763 87.48C67.2043 87.48 66.8682 87.192 66.8682 86.616C66.8682 86.328 67.4123 83.992 68.5003 79.608C68.9483 77.784 70.4843 70.6 73.1083 58.056C75.4123 46.888 76.6283 41.192 76.7563 40.968C76.8523 40.648 77.0923 40.488 77.4763 40.488C77.8283 40.488 78.1003 40.6 78.2923 40.824C78.4843 41.048 78.6443 41.432 78.7723 41.976C79.2843 44.44 80.8523 50.776 83.4763 60.984C86.1323 71.16 88.1323 78.6 89.4763 83.304C90.1803 79.336 91.6683 71.416 93.9403 59.544L97.3003 41.544C97.4283 41.224 97.6523 40.952 97.9723 40.728C98.3243 40.504 98.6603 40.392 98.9803 40.392C99.2043 40.392 99.3323 40.456 99.3643 40.584C99.4283 40.68 99.4603 40.84 99.4603 41.064C99.4603 41.288 99.4603 41.448 99.4603 41.544C98.1163 48.168 96.6923 55.512 95.1883 63.576C93.6843 71.64 92.4523 78.52 91.4923 84.216C91.4283 84.472 91.3323 84.936 91.2043 85.608C91.0763 86.28 90.8843 86.76 90.6283 87.048C90.4043 87.368 90.0683 87.528 89.6203 87.528Z" fill="white"/>
</svg>
